<svg xmlns="http://www.w3.org/2000/svg" xmlns:xlink="http://www.w3.org/1999/xlink" viewBox="0 0 365.32 395.28"><defs><style>.cls-1{fill:#fff;}.cls-2{fill:#4dbb9d;opacity:0.5;}.cls-3,.cls-4{stroke-miterlimit:10;stroke-width:0.75px;}.cls-3{fill:url(#linear-gradient);stroke:url(#linear-gradient-2);}.cls-4{fill:none;stroke:url(#linear-gradient-3);}.cls-10,.cls-5,.cls-6,.cls-7,.cls-8,.cls-9{opacity:0.8;}.cls-5{fill:url(#linear-gradient-4);}.cls-6{fill:url(#linear-gradient-5);}.cls-7{fill:url(#linear-gradient-6);}.cls-8{fill:url(#linear-gradient-7);}.cls-9{fill:url(#linear-gradient-8);}.cls-10{fill:url(#linear-gradient-9);}</style><linearGradient id="linear-gradient" x1="183.39" y1="228.8" x2="180.35" y2="352.94" gradientUnits="userSpaceOnUse"><stop offset="0" stop-color="#289372"/><stop offset="0.15" stop-color="#4da68a" stop-opacity="0.86"/><stop offset="0.43" stop-color="#aed6ca" stop-opacity="0.5"/><stop offset="0.64" stop-color="#fff" stop-opacity="0.2"/><stop offset="0.69" stop-color="#fff" stop-opacity="0.21"/><stop offset="0.74" stop-color="#fff" stop-opacity="0.26"/><stop offset="0.78" stop-color="#fff" stop-opacity="0.33"/><stop offset="0.82" stop-color="#fff" stop-opacity="0.43"/><stop offset="0.86" stop-color="#fff" stop-opacity="0.55"/><stop offset="0.9" stop-color="#fff" stop-opacity="0.71"/><stop offset="0.94" stop-color="#fff" stop-opacity="0.89"/><stop offset="0.96" stop-color="#fff"/></linearGradient><linearGradient id="linear-gradient-2" y1="262.41" x2="365.32" y2="262.41" gradientUnits="userSpaceOnUse"><stop offset="0" stop-color="#289372"/><stop offset="0.11" stop-color="#399b7d"/><stop offset="0.33" stop-color="#64b199"/><stop offset="0.63" stop-color="#aad4c8"/><stop offset="0.96" stop-color="#fff"/></linearGradient><linearGradient id="linear-gradient-3" x1="184.84" y1="115.02" x2="180.29" y2="300.95" xlink:href="#linear-gradient-2"/><linearGradient id="linear-gradient-4" x1="184.15" y1="7.09" x2="184.15" y2="198.96" gradientUnits="userSpaceOnUse"><stop offset="0.03" stop-color="#fff"/><stop offset="1" stop-color="#7fceb8"/></linearGradient><linearGradient id="linear-gradient-5" x1="83.8" y1="107.69" x2="83.8" y2="221.84" xlink:href="#linear-gradient-4"/><linearGradient id="linear-gradient-6" x1="134.18" y1="59.21" x2="134.18" y2="176.16" xlink:href="#linear-gradient-4"/><linearGradient id="linear-gradient-7" x1="179.33" y1="130.03" x2="179.33" y2="265.02" xlink:href="#linear-gradient-4"/><linearGradient id="linear-gradient-8" x1="228.29" y1="70.62" x2="228.29" y2="202.75" xlink:href="#linear-gradient-4"/><linearGradient id="linear-gradient-9" x1="281.53" y1="88.2" x2="281.53" y2="176.13" xlink:href="#linear-gradient-4"/></defs><g id="Layer_2" data-name="Layer 2"><g id="Layer_1-2" data-name="Layer 1"><path class="cls-1" d="M178.43,394.24,2.72,302.61a4.36,4.36,0,0,1,.14-7.8l175.86-83.93a9.14,9.14,0,0,1,7.88,0l175.87,83.93a4.36,4.36,0,0,1,.13,7.8L186.89,394.24A9.16,9.16,0,0,1,178.43,394.24Z"/><path class="cls-2" d="M178.43,354,2.72,262.39a4.36,4.36,0,0,1,.14-7.8l175.86-83.93a9.14,9.14,0,0,1,7.88,0l175.87,83.93a4.36,4.36,0,0,1,.13,7.8L186.89,354A9.16,9.16,0,0,1,178.43,354Z"/><path class="cls-3" d="M178.43,354,2.72,262.39a4.36,4.36,0,0,1,.14-7.8l175.86-83.93a9.14,9.14,0,0,1,7.88,0l175.87,83.93a4.36,4.36,0,0,1,.13,7.8L186.89,354A9.16,9.16,0,0,1,178.43,354Z"/><path class="cls-4" d="M178.43,299.6,2.72,208a4.35,4.35,0,0,1,.14-7.79l175.86-83.94a9.21,9.21,0,0,1,7.88,0l175.87,83.94a4.35,4.35,0,0,1,.13,7.79L186.89,299.6A9.16,9.16,0,0,1,178.43,299.6Z"/><rect class="cls-5" x="149.46" width="69.4" height="201.8" rx="34.7"/><rect class="cls-6" x="49.1" y="101.51" width="69.4" height="125.01" rx="34.7"/><rect class="cls-7" x="99.48" y="54.93" width="69.4" height="125.01" rx="34.7"/><rect class="cls-8" x="144.64" y="128.6" width="69.4" height="139.74" rx="34.7"/><rect class="cls-9" x="193.59" y="67.29" width="69.4" height="174.91" rx="34.7"/><rect class="cls-10" x="246.83" y="84.15" width="69.4" height="131.43" rx="34.7"/></g></g></svg>