<svg xmlns="http://www.w3.org/2000/svg" viewBox="0 0 860.75 730.68"><defs><style>.cls-1,.cls-2{fill:#727277;}.cls-2{opacity:0.5;}</style></defs><g id="Layer_2" data-name="Layer 2"><g id="logo_footer" data-name="logo footer"><g id="Layer_5" data-name="Layer 5"><path class="cls-1" d="M85.06,481.72a27.46,27.46,0,0,0,16.3-10.14q6.54-8.15,6.55-20.27a32.3,32.3,0,0,0-10-23.94q-10-9.84-28.12-9.84H0V550.08H72q18.27,0,28.41-10.14t10.14-25.63a34,34,0,0,0-7.36-21.66Q95.79,483.31,85.06,481.72Zm-56.84-40H63.6q6.95,0,11.23,4.08a13.8,13.8,0,0,1,4.26,10.43,13.62,13.62,0,0,1-4.16,10.33q-4.19,4-11.33,4H28.22Zm48.89,79.79q-4.58,4.08-12.52,4.08H28.22V494.83H64.59q7.95,0,12.52,4.47a14.83,14.83,0,0,1,4.57,11C81.68,515.1,80.16,518.85,77.11,521.56Z"/><polygon class="cls-1" points="225.96 525.24 169.91 525.24 169.91 417.52 141.69 417.52 141.69 550.08 225.96 550.08 225.96 525.24"/><path class="cls-1" d="M370.43,417.53H341.62v78.7q0,14.29-8.05,22.75t-22.95,8.44q-14.91,0-23.05-8.44t-8.15-22.75v-78.7H250.8v79.69q0,25.23,15.2,40.24t44.62,15q29.4,0,44.61-14.9T370.43,497Z"/><path class="cls-1" d="M470.59,440.39A33.3,33.3,0,0,1,489,445.84a36.58,36.58,0,0,1,12.82,13.82L526,447.73q-18.3-32.39-55.45-32.39-30.21,0-50.38,19.18T400,483.91q0,30.19,20.17,49.38t50.38,19.17q36.56,0,55.45-32.59l-24.25-11.72A35.42,35.42,0,0,1,489,522.06a33.62,33.62,0,0,1-18.38,5.36q-18.09,0-29.81-12.32t-11.72-31.19q0-18.89,11.72-31.21T470.59,440.39Z"/><path class="cls-1" d="M615.66,415.34q-30,0-49.58,19.38T546.5,483.9q0,29.8,19.58,49.19t49.58,19.38q30.21,0,49.78-19.29T685,483.9q0-30-19.57-49.28T615.66,415.34Zm29.21,99.76q-11.13,12.33-29.21,12.32T586.55,515.1q-11-12.32-11-31.2t11-31.19q11-12.33,29.11-12.33t29.21,12.33Q656,465,656,483.9T644.87,515.1Z"/><polygon class="cls-1" points="830.08 550.08 858.5 550.08 858.5 417.52 818.76 417.52 786.57 497.61 754.37 417.52 714.83 417.52 714.83 550.08 743.05 550.08 743.05 457.27 780.4 550.08 792.73 550.08 830.08 457.27 830.08 550.08"/><polygon class="cls-1" points="20.17 636.96 20.17 596.29 34.71 596.29 34.71 591.22 0.01 591.22 0.01 596.29 14.47 596.29 14.47 636.96 20.17 636.96"/><polygon class="cls-1" points="105.14 596.29 105.14 591.22 75.17 591.22 75.17 636.96 105.14 636.96 105.14 631.88 80.86 631.88 80.86 616.11 104.66 616.11 104.66 611.03 80.86 611.03 80.86 596.29 105.14 596.29"/><path class="cls-1" d="M176,630.89a14.92,14.92,0,0,1-7.2,1.82,16.72,16.72,0,0,1-12.58-5.25,20.17,20.17,0,0,1,0-26.68,16.72,16.72,0,0,1,12.58-5.25,14.73,14.73,0,0,1,7.2,1.85,15.32,15.32,0,0,1,5.36,4.81l4.8-2.67a20.15,20.15,0,0,0-17.36-9.06A23,23,0,0,0,152,597.08q-6.75,6.61-6.75,17t6.75,17a23,23,0,0,0,16.77,6.62q10.77,0,17.43-9l-4.87-2.68A14.66,14.66,0,0,1,176,630.89Z"/><polygon class="cls-1" points="258.84 636.96 264.54 636.96 264.54 591.22 258.84 591.22 258.84 610.9 232.09 610.9 232.09 591.22 226.4 591.22 226.4 636.96 232.09 636.96 232.09 615.97 258.84 615.97 258.84 636.96"/><polygon class="cls-1" points="340.33 626.95 313.99 591.22 308.15 591.22 308.15 636.96 313.85 636.96 313.85 600.48 340.53 636.96 346.02 636.96 346.02 591.22 340.33 591.22 340.33 626.95"/><path class="cls-1" d="M410.49,590.46q-10.1,0-16.4,6.72t-6.3,16.94q0,10.21,6.3,16.94t16.4,6.72q10,0,16.35-6.72t6.35-16.94q0-10.22-6.35-16.94T410.49,590.46Zm12.17,37a16.78,16.78,0,0,1-24.38,0q-4.61-5.25-4.6-13.34c0-5.43,1.53-9.9,4.6-13.37a16.84,16.84,0,0,1,24.38,0c3.09,3.47,4.63,7.94,4.63,13.37S425.75,624,422.66,627.46Z"/><polygon class="cls-1" points="480.71 591.22 475.03 591.22 475.03 636.96 501.98 636.96 501.98 631.88 480.71 631.88 480.71 591.22"/><path class="cls-1" d="M561.44,590.46q-10.08,0-16.39,6.72t-6.31,16.94q0,10.21,6.31,16.94t16.39,6.72q10,0,16.36-6.72t6.34-16.94q0-10.22-6.34-16.94T561.44,590.46Zm12.17,37a16.78,16.78,0,0,1-24.38,0q-4.59-5.25-4.59-13.34c0-5.43,1.53-9.9,4.59-13.37a16.84,16.84,0,0,1,24.38,0c3.09,3.47,4.64,7.94,4.64,13.37S576.7,624,573.61,627.46Z"/><path class="cls-1" d="M644.23,618.51h15.7v9.33a17.62,17.62,0,0,1-5.24,3.46,17.56,17.56,0,0,1-19.62-3.81,20.21,20.21,0,0,1,0-26.71,16.72,16.72,0,0,1,12.58-5.25,17,17,0,0,1,7.51,1.72,15.55,15.55,0,0,1,5.73,4.59l4.52-2.8a21.79,21.79,0,0,0-17.76-8.58A23.08,23.08,0,0,0,630.92,597c-4.53,4.4-6.79,10.08-6.79,17.08s2.26,12.7,6.79,17.11a24.43,24.43,0,0,0,34.7-1.27V613.43H644.23Z"/><rect class="cls-1" x="707.8" y="591.22" width="5.7" height="45.74"/><polygon class="cls-1" points="757.12 636.96 787.09 636.96 787.09 631.88 762.8 631.88 762.8 616.11 786.61 616.11 786.61 611.03 762.8 611.03 762.8 596.29 787.09 596.29 787.09 591.22 757.12 591.22 757.12 636.96"/><path class="cls-1" d="M858.72,617.55a11.84,11.84,0,0,0-5-4.08c-2-.85-4.16-1.64-6.52-2.4s-4.52-1.38-6.51-1.89a13.36,13.36,0,0,1-5-2.33,4.85,4.85,0,0,1-2-4,6.3,6.3,0,0,1,2.65-5.24,10.71,10.71,0,0,1,6.75-2q8.24,0,13.24,5.49l3.43-4.18q-6-6.39-16.26-6.38a17.51,17.51,0,0,0-11.24,3.53,11.13,11.13,0,0,0-4.46,9.16,10.38,10.38,0,0,0,5.38,9.39,29.18,29.18,0,0,0,5.25,2.23q2.88.93,5.79,1.68a47.11,47.11,0,0,1,5.28,1.68,10.34,10.34,0,0,1,3.88,2.57,5.81,5.81,0,0,1,1.51,4.05,7.24,7.24,0,0,1-2.61,5.52q-2.61,2.37-8.16,2.37a18.52,18.52,0,0,1-14.4-6.52l-3.36,4.32q6.45,7.28,17.56,7.27,8.57,0,12.72-3.9a12.61,12.61,0,0,0,4.15-9.54A11.33,11.33,0,0,0,858.72,617.55Z"/><path class="cls-1" d="M12.76,672.39l-3.09-2.34a52.35,52.35,0,0,0,0,60.63l3.09-2.4A69.52,69.52,0,0,1,7.38,714.8a60.29,60.29,0,0,1,0-28.84A73.33,73.33,0,0,1,12.76,672.39Z"/><path class="cls-1" d="M46.74,693.55q-3-1.27-6.51-2.41t-6.52-1.88a13.17,13.17,0,0,1-5-2.34,4.82,4.82,0,0,1-2-4,6.33,6.33,0,0,1,2.65-5.25,10.75,10.75,0,0,1,6.75-2q8.24,0,13.24,5.49L52.74,677q-6-6.37-16.25-6.38a17.59,17.59,0,0,0-11.25,3.53,11.18,11.18,0,0,0-4.46,9.16,10.39,10.39,0,0,0,5.39,9.4,29.48,29.48,0,0,0,5.24,2.22q2.9.93,5.8,1.69a45.13,45.13,0,0,1,5.28,1.68,10.22,10.22,0,0,1,3.88,2.57,5.78,5.78,0,0,1,1.5,4,7.24,7.24,0,0,1-2.6,5.52q-2.61,2.36-8.16,2.36a18.58,18.58,0,0,1-14.41-6.51l-3.35,4.32q6.43,7.27,17.55,7.27c5.71,0,10-1.31,12.72-3.91a12.61,12.61,0,0,0,4.16-9.53,11.29,11.29,0,0,0-2-6.79A11.72,11.72,0,0,0,46.74,693.55Z"/><polygon class="cls-1" points="87.38 705.72 73.19 671.29 65.02 671.29 65.02 717.03 70.72 717.03 70.72 679.38 86.21 717.03 88.55 717.03 104.11 679.38 104.11 717.03 109.81 717.03 109.81 671.29 101.64 671.29 87.38 705.72"/><path class="cls-1" d="M152.13,711a14.85,14.85,0,0,1-7.21,1.82,16.74,16.74,0,0,1-12.58-5.24,20.19,20.19,0,0,1,0-26.69,16.74,16.74,0,0,1,12.58-5.24,14.77,14.77,0,0,1,7.21,1.85,15.27,15.27,0,0,1,5.35,4.8l4.8-2.67a20.15,20.15,0,0,0-17.36-9.06,23,23,0,0,0-16.76,6.62q-6.76,6.61-6.76,17.05t6.76,17a23,23,0,0,0,16.76,6.62q10.77,0,17.43-9.05l-4.87-2.68A14.61,14.61,0,0,1,152.13,711Z"/><rect class="cls-1" x="169.07" y="698.17" width="16.46" height="4.53"/><path class="cls-1" d="M214.06,671.29H195.68V717h5.69V698.86h12.69q6.58,0,10.46-4a14.4,14.4,0,0,0,0-19.61Q220.71,671.28,214.06,671.29ZM220,691.35a9.12,9.12,0,0,1-6.58,2.44h-12V676.36h12A9.12,9.12,0,0,1,220,678.8a9,9,0,0,1,0,12.55Z"/><polygon class="cls-1" points="255.9 710.8 240.46 671.29 233.95 671.29 252.33 717.03 259.39 717.03 277.84 671.29 271.33 671.29 255.9 710.8"/><polygon class="cls-1" points="283.4 676.37 297.86 676.37 297.86 717.03 303.56 717.03 303.56 676.37 318.1 676.37 318.1 671.29 283.4 671.29 283.4 676.37"/><path class="cls-1" d="M324.2,672.39a73.66,73.66,0,0,1,5.42,13.51,59.54,59.54,0,0,1,0,28.9,71.78,71.78,0,0,1-5.42,13.48l3.09,2.4a52,52,0,0,0,0-60.63Z"/><polygon class="cls-1" points="374.27 671.29 368.58 671.29 368.58 717.03 395.53 717.03 395.53 711.96 374.27 711.96 374.27 671.29"/><polygon class="cls-1" points="396.29 676.37 410.75 676.37 410.75 717.03 416.45 717.03 416.45 676.37 430.99 676.37 430.99 671.29 396.29 671.29 396.29 676.37"/><path class="cls-1" d="M456.91,671.29H441.28V717h15.63q10.5,0,17-6.45t6.48-16.39a22.29,22.29,0,0,0-6.48-16.39Q467.41,671.29,456.91,671.29Zm12.83,35.59Q465,712,456.91,712H447v-35.6h9.94q8.23,0,12.9,5.08a18.13,18.13,0,0,1,4.66,12.76A17.89,17.89,0,0,1,469.74,706.88Z"/><path class="cls-1" d="M492.72,710.18A3.72,3.72,0,0,0,489,714a3.77,3.77,0,1,0,6.44-2.68A3.67,3.67,0,0,0,492.72,710.18Z"/></g><path class="cls-1" d="M0,0V370.42H370.44V0ZM125.87,298.24l-.06.08v-2l.13-140.45,0-31.41a49.81,49.81,0,0,1,49.81-49.77c39.12,0,63,43,42.23,76.22l-9.17,14.67L201,178.13,127.09,296.28ZM215,287.18a69.83,69.83,0,0,1-37.51,11.15h-50l92.7-123.71A70.1,70.1,0,0,1,247,223.41v.16c.1,1.5.16,3,.16,4.54A70.21,70.21,0,0,1,215,287.18Z"/><path class="cls-2" d="M247.18,228.11a70.21,70.21,0,0,1-69.75,70.22h-50l92.69-123.71A70,70,0,0,1,247,223.41a.81.81,0,0,1,0,.16c.1,1.5.15,3,.15,4.54Z"/></g></g></svg>